<svg width="100" height="100" viewBox="0 0 100 100" fill="none" xmlns="http://www.w3.org/2000/svg">
<rect width="100" height="100" rx="50" fill="white"/>
<circle cx="31.1575" cy="50.1576" r="8.56482" fill="#F55C59"/>
<circle cx="68.8425" cy="50.1576" r="8.56482" fill="#F55C59"/>
<path fill-rule="evenodd" clip-rule="evenodd" d="M51.6992 56.7559C51.6954 56.7808 51.7003 56.8062 51.713 56.8279L52.8824 58.8227C55.9588 64.4771 61.9525 68.3148 68.8426 68.3148C78.8707 68.3148 87 60.1855 87 50.1574C87 40.1293 78.8707 32 68.8426 32C60.3463 32 53.2129 37.8356 51.232 45.7173C51.0726 46.3514 50.1695 46.518 49.8347 45.9564C48.7959 44.2138 47.8477 42.7067 47.3294 41.8931C44.322 36.0199 38.2091 32 31.1574 32C21.1293 32 13 40.1293 13 50.1574C13 60.1855 21.1293 68.3148 31.1574 68.3148C36.4599 68.3148 41.2315 66.0419 44.5512 62.4172C45.0002 61.927 45.8889 62.2293 45.8889 62.8941V67.6296C45.8889 68.008 46.1957 68.3148 46.5741 68.3148H47.9444C49.0797 68.3148 50 67.3945 50 66.2593V59.9784C50 59.8301 49.9519 59.6859 49.863 59.5673L45.9617 52.9411C45.076 52.4875 44.7154 53.8897 44.5349 54.4525C42.7201 60.1093 37.4169 64.2037 31.1574 64.2037C23.3999 64.2037 17.1111 57.915 17.1111 50.1574C17.1111 42.3999 23.3999 36.1111 31.1574 36.1111C36.0007 36.1111 40.2715 38.5624 42.7968 42.2921C42.7994 42.296 42.8056 42.2942 42.8056 42.2894C42.8056 42.2852 42.8094 42.2818 42.8123 42.285C43.0136 42.5084 44.5368 44.9623 46.06 47.4163L46.0601 47.4165L46.0603 47.4169L46.0605 47.4172C47.4954 49.7289 48.9302 52.0404 49.2601 52.4875C49.295 52.5349 49.3299 52.5813 49.3595 52.6321L51.7126 56.6662L51.7129 56.6667L51.6992 56.7559ZM82.8889 50.1574C82.8889 57.915 76.6001 64.2037 68.8426 64.2037C61.085 64.2037 54.7963 57.915 54.7963 50.1574C54.7963 42.3999 61.085 36.1111 68.8426 36.1111C76.6001 36.1111 82.8889 42.3999 82.8889 50.1574Z" fill="#092545"/>
<path d="M51.3704 38.1162C51.3704 38.7724 52.204 39.0532 52.6011 38.5308L55.3418 34.9245C55.4324 34.8053 55.4815 34.6597 55.4815 34.5099V33.3704C55.4815 32.992 55.1747 32.6852 54.7963 32.6852H53.4259C52.2907 32.6852 51.3704 33.6055 51.3704 34.7407V38.1162Z" fill="#092545"/>
<path d="M55.4815 66.4179C55.4815 66.2681 55.4324 66.1225 55.3418 66.0033L52.6011 62.3971C52.204 61.8746 51.3704 62.1554 51.3704 62.8117V66.2593C51.3704 67.3945 52.2907 68.3148 53.4259 68.3148H54.7963C55.1747 68.3148 55.4815 68.008 55.4815 67.6296V66.4179Z" fill="#092545"/>
</svg>
