<svg width="100" height="100" viewBox="0 0 100 100" fill="none" xmlns="http://www.w3.org/2000/svg">
<circle cx="24.5372" cy="49.8885" r="11.5741" fill="#F55C59"/>
<circle cx="75.463" cy="49.8885" r="11.5741" fill="#F55C59"/>
<path fill-rule="evenodd" clip-rule="evenodd" d="M52.2962 58.8051C52.2911 58.8386 52.2976 58.873 52.3148 58.9023L53.8951 61.598C58.0525 69.2391 66.1521 74.4252 75.463 74.4252C89.0144 74.4252 100 63.4395 100 49.8881C100 36.3367 89.0144 25.3511 75.463 25.3511C63.9815 25.3511 54.3418 33.237 51.6648 43.8879C51.4495 44.7448 50.229 44.97 49.7766 44.211C48.3728 41.8562 47.0915 39.8196 46.391 38.7202C42.327 30.7834 34.0664 25.3511 24.537 25.3511C10.9856 25.3511 0 36.3367 0 49.8881C0 63.4395 10.9856 74.4252 24.537 74.4252C31.7026 74.4252 38.1507 71.3536 42.6367 66.4554C43.2435 65.7929 44.4444 66.2015 44.4444 67.0999V73.4992C44.4444 74.0106 44.859 74.4252 45.3704 74.4252H47.2222C48.7563 74.4252 50 73.1815 50 71.6474V63.1597C50 62.9594 49.935 62.7644 49.8148 62.6042L44.5428 53.6499C43.3459 53.0369 42.8587 54.9317 42.6147 55.6923C40.1623 63.3366 32.9958 68.8696 24.537 68.8696C14.0539 68.8696 5.55556 60.3713 5.55556 49.8881C5.55556 39.4049 14.0539 30.9066 24.537 30.9066C31.0821 30.9066 36.8534 34.2192 40.2659 39.2593C40.2695 39.2646 40.2778 39.2621 40.2778 39.2557C40.2778 39.2499 40.283 39.2454 40.2868 39.2497C40.5589 39.5516 42.6172 42.8677 44.6756 46.184L44.6757 46.1841L44.6761 46.1847L44.6764 46.1851C46.6154 49.309 48.5543 52.4327 49.0001 53.0369C49.0473 53.1009 49.0944 53.1636 49.1345 53.2323L52.3143 58.6837L52.3148 58.6844L52.2962 58.8051ZM94.4444 49.8881C94.4444 60.3713 85.9461 68.8696 75.463 68.8696C64.9798 68.8696 56.4815 60.3713 56.4815 49.8881C56.4815 39.4049 64.9798 30.9066 75.463 30.9066C85.9461 30.9066 94.4444 39.4049 94.4444 49.8881Z" fill="#808181"/>
<path d="M51.8518 33.6162C51.8518 34.503 52.9783 34.8825 53.515 34.1764L57.2187 29.3031C57.3411 29.142 57.4074 28.9452 57.4074 28.7429V27.2029C57.4074 26.6916 56.9929 26.277 56.4815 26.277H54.6296C53.0955 26.277 51.8518 27.5207 51.8518 29.0548V33.6162Z" fill="#808181"/>
<path d="M57.4074 71.8617C57.4074 71.6594 57.3411 71.4626 57.2187 71.3015L53.515 66.4282C52.9783 65.7221 51.8518 66.1016 51.8518 66.9884V71.6474C51.8518 73.1815 53.0955 74.4252 54.6296 74.4252H56.4815C56.9929 74.4252 57.4074 74.0106 57.4074 73.4992V71.8617Z" fill="#808181"/>
</svg>
