<svg width="900" height="850" viewBox="0 0 900 850" fill="none" xmlns="http://www.w3.org/2000/svg">
<g clip-path="url(#clip0)">
<path d="M587.65 118.94L610.94 98L619.41 107.41L594.71 129.29L587.65 118.94Z" fill="#E7522E"/>
<path d="M675.29 204.29L685.53 194.23L709.35 220.35L699.12 229.18L675.29 204.29Z" fill="#FEE234"/>
<path d="M464.76 156.38C464.76 156.38 467.5 142.26 469.18 142.26C470.86 142.26 473.68 156.38 473.68 156.38C473.68 156.38 482.76 157.44 482.85 160C482.94 162.56 473 163.09 473 163.09C473 163.09 471.77 175.88 469.21 175.79C466.65 175.7 464.79 163.44 464.79 163.44C464.79 163.44 455.35 162.38 455.27 160.35C455.19 158.32 463.35 156.29 464.76 156.38Z" fill="#5ED4C3"/>
<path d="M164.82 237.29L176.82 225.29L205.77 254.94L194.23 266.71L164.82 237.29Z" fill="#A740A0"/>
<path d="M297.06 309.76L320.82 288.35L330 297.76L305.53 320.12L297.06 309.76Z" fill="#E7522E"/>
<path d="M214 396.82C214 396.82 218.06 361.88 222.12 361.71C226.18 361.54 230.59 396.82 230.59 396.82C230.59 396.82 248.59 399.82 249.12 405.29C249.65 410.76 229.88 413.59 229.88 413.59C229.88 413.59 226 444.12 221.94 444.12C217.88 444.12 214 413.59 214 413.59C214 413.59 194.41 410.06 194.76 405.29C195.11 400.52 214 396.82 214 396.82Z" fill="#FEE234"/>
<path d="M244.88 590.41L257.23 579.65L227.94 550.18L216.65 561.65L244.88 590.41Z" fill="#5ED4C3"/>
<path d="M701.53 436.12L733.06 410.94L722.35 397.88L690.47 424.24L701.53 436.12Z" fill="#5ED4C3"/>
<path d="M706.24 579.88L741.06 558.47L750 572.59L715.18 594.24L706.24 579.88Z" fill="#A740A0"/>
<path d="M605.06 601.06L612.82 590.71L638.94 609.76L630.47 620.35L605.06 601.06Z" fill="#E7522E"/>
<path d="M667.88 730.94L697.29 712.12L705.53 723.65L675.41 742.24L667.88 730.94Z" fill="#FEE234"/>
<path d="M419.65 739.18L450 727.18L454.94 739.18L423.88 751.18L419.65 739.18Z" fill="#E7522E"/>
<path d="M454 532.71H484.35V549.29H454.88L454 532.71Z" fill="#A740A0"/>
<path d="M259.18 716.59L293.41 695.06L301.53 708.82L266.59 731.06L259.18 716.59Z" fill="#A740A0"/>
<path d="M150 728.94L168.12 698.59L179.77 706.35L164.88 735.65L150 728.94Z" fill="#FEE234"/>
<path d="M605.18 470.59C605.18 470.59 608.59 449.06 612.35 449.06C616.11 449.06 618.94 471.18 618.94 471.18C618.94 471.18 633.65 472.94 633.53 476.59C633.41 480.24 618.12 481.76 618.12 481.76C618.12 481.76 616.12 500.94 611.88 501.06C607.64 501.18 605.18 481.76 605.18 481.76C605.18 481.76 590.35 480.24 590.59 476.59C590.83 472.94 605.18 470.59 605.18 470.59Z" fill="#A740A0"/>
</g>
<defs>
<clipPath id="clip0">
<rect width="600" height="653.18" fill="white" transform="translate(150 98)"/>
</clipPath>
</defs>
</svg>
