<svg width="900" height="850" viewBox="0 0 900 850" fill="none" xmlns="http://www.w3.org/2000/svg">
<path d="M577.94 271.05C577.94 271.05 561.76 269.23 566.44 250.7C570.23 237.38 587.61 236.4 590.26 235.79C592.91 235.18 619.11 235.7 622.82 217H626.76C627.158 219.824 626.807 222.703 625.744 225.349C624.681 227.995 622.941 230.316 620.7 232.08C612.94 238.17 608.17 239.08 592.03 240.9C575.89 242.72 568.56 252.64 571.73 260.32C575.73 266.4 578.35 265.43 578.35 265.43L579.76 267.11L575.7 268.52L577.94 271.05Z" fill="#E7522E"/>
<path d="M534.06 217H541.47C541.47 217 532.29 231.44 539.61 244C546.93 256.56 557.97 258.88 550.47 272.47C542.97 286.06 521 274.77 521 274.77L523.17 269.12C523.17 269.12 533.35 275.47 540.06 273C546.77 270.53 548.97 264.62 544.06 258.8C539.15 252.98 532.14 247.33 530.91 237.27C529.68 227.21 534.06 217 534.06 217Z" fill="#E7522E"/>
<path d="M539.58 314.29C539.58 314.29 548.53 293.93 566.88 294.4C585.23 294.87 595.35 314.29 595.35 314.29H601.94C601.94 314.29 592.41 289.7 567.23 288.52C542.05 287.34 537.84 311.52 532.88 313.35L539.58 314.29Z" fill="#E7522E"/>
<path d="M609.94 313.99L623.41 302.23L627.94 304.76L618.94 313.99H609.94Z" fill="#E7522E"/>
</svg>
