<svg width="900" height="850" viewBox="0 0 900 850" fill="none" xmlns="http://www.w3.org/2000/svg">
<path d="M367.171 217.41C367.171 217.41 363.081 210.63 363.081 206.41C363.081 202.19 363.381 196.64 363.381 196.64C363.381 196.64 351.551 194.76 346.381 195.99C341.211 197.22 337.381 196.64 337.321 193.52L336.731 192.17C336.731 192.17 330.791 194.05 332.261 188.88C332.261 188.88 332.671 186.76 336.381 185.41C336.381 185.41 329.201 185.7 330.551 181.64C331.901 177.58 335.731 177.94 337.551 177.76C339.371 177.58 350.081 175.29 361.961 178.82C372.081 183.23 372.261 183.99 372.261 183.99L369.261 173.7H350.081C349.624 173.701 349.171 173.612 348.749 173.438C348.327 173.263 347.943 173.007 347.621 172.683C347.298 172.36 347.043 171.975 346.869 171.553C346.696 171.13 346.608 170.677 346.611 170.22V170.22C346.603 169.313 346.95 168.439 347.578 167.785C348.205 167.131 349.065 166.749 349.971 166.72L373.291 166C373.291 166 376.581 166.59 381.231 183.42C389.231 200.71 396.971 218.83 397.231 226.24L367.171 217.41Z" fill="#EC55B4"/>
<path d="M652.991 316.87C652.991 316.87 619.991 426.4 578.521 408.4L578.381 408.34C573.541 406.22 569.171 404.22 565.171 402.22C535.231 387.31 528.911 376.47 528.911 376.47L502.271 423.41L437.761 406.48L434.331 405.58C434.331 405.58 434.211 400.25 434.401 392.5C434.721 379.18 435.971 358.73 440.331 346.11C440.331 346.11 352.331 365.47 356.271 308.41C360.211 251.35 365.681 215.35 365.681 215.35L397.971 224.52C397.971 224.52 397.511 232.35 396.971 243.14C396.761 247.52 396.531 252.39 396.321 257.42C395.481 277.31 394.851 299.75 396.021 304.73C396.021 304.73 413.251 297.65 438.791 295.42C443.251 295.04 447.951 294.8 452.871 294.78C492.361 294.55 545.121 307.99 586.601 367.99C586.601 367.99 594.601 357.99 603.881 344.42C606.141 341.14 608.481 337.65 610.801 334.05C616.341 325.627 621.351 316.866 625.801 307.82L652.991 316.87Z" fill="#6D41C0"/>
<path d="M526.951 345.66C530.972 345.66 534.231 342.401 534.231 338.38C534.231 334.359 530.972 331.1 526.951 331.1C522.93 331.1 519.671 334.359 519.671 338.38C519.671 342.401 522.93 345.66 526.951 345.66Z" fill="#FEDE3F"/>
<path d="M485.191 373.83C489.212 373.83 492.471 370.571 492.471 366.55C492.471 362.529 489.212 359.27 485.191 359.27C481.17 359.27 477.911 362.529 477.911 366.55C477.911 370.571 481.17 373.83 485.191 373.83Z" fill="#51AC57"/>
<path d="M438.831 295.41C438.625 296.407 438.631 297.435 438.847 298.429C439.064 299.423 439.486 300.361 440.088 301.182C440.689 302.003 441.456 302.689 442.338 303.195C443.221 303.701 444.2 304.017 445.212 304.121C446.224 304.226 447.247 304.117 448.214 303.802C449.182 303.487 450.073 302.973 450.829 302.293C451.586 301.612 452.191 300.781 452.606 299.852C453.022 298.923 453.238 297.918 453.241 296.9C453.242 296.178 453.135 295.46 452.921 294.77L438.831 295.41Z" fill="#51AC57"/>
<path d="M369.821 319.37C373.842 319.37 377.101 316.111 377.101 312.09C377.101 308.069 373.842 304.81 369.821 304.81C365.8 304.81 362.541 308.069 362.541 312.09C362.541 316.111 365.8 319.37 369.821 319.37Z" fill="#FEDE3F"/>
<path d="M397.001 243.13C396.791 247.51 396.561 252.38 396.351 257.41C396.021 257.467 395.686 257.494 395.351 257.49C393.421 257.49 391.569 256.723 390.204 255.358C388.838 253.992 388.071 252.141 388.071 250.21C388.071 248.279 388.838 246.428 390.204 245.062C391.569 243.697 393.421 242.93 395.351 242.93C395.908 242.925 396.462 242.992 397.001 243.13V243.13Z" fill="#51AC57"/>
<path d="M442.351 399.73C442.353 401.182 441.918 402.601 441.103 403.803C440.288 405.005 439.131 405.934 437.781 406.47L434.351 405.57C434.351 405.57 434.231 400.24 434.421 392.49C434.637 392.475 434.854 392.475 435.071 392.49C436.996 392.487 438.843 393.248 440.207 394.605C441.572 395.962 442.343 397.805 442.351 399.73Z" fill="#51AC57"/>
<path d="M579.101 405.22C579.106 406.308 578.86 407.383 578.381 408.36C573.541 406.22 569.171 404.22 565.171 402.22C565.858 400.705 567.042 399.472 568.528 398.724C570.013 397.976 571.71 397.76 573.336 398.111C574.961 398.461 576.418 399.358 577.463 400.651C578.508 401.945 579.079 403.557 579.081 405.22H579.101Z" fill="#51AC57"/>
<path d="M610.841 334.04C612.126 334.102 613.372 334.503 614.451 335.204C615.53 335.904 616.404 336.878 616.984 338.027C617.563 339.176 617.827 340.458 617.75 341.742C617.672 343.026 617.254 344.267 616.54 345.337C615.826 346.407 614.841 347.269 613.685 347.834C612.529 348.398 611.243 348.646 609.96 348.552C608.677 348.458 607.442 348.025 606.381 347.297C605.32 346.569 604.471 345.573 603.921 344.41L610.841 334.04Z" fill="#FEDE3F"/>
<path d="M651.701 317.69V317.93L626.991 309.51L626.701 306.34C624.95 305.122 623.299 303.768 621.761 302.29C620.599 301.076 619.751 299.597 619.291 297.98C618.93 298.874 618.285 299.624 617.456 300.114C616.626 300.604 615.658 300.806 614.701 300.69C611.411 300.29 613.371 294.37 613.511 293.95C613.301 294.27 610.641 298.26 607.761 296.34C605.061 294.34 606.341 290.09 607.811 286.34C605.431 283.76 601.721 278.66 604.521 274.26C606.971 270.42 610.151 274.13 613.041 278.03C616.333 276.16 619.804 274.622 623.401 273.44L615.761 269.85C615.761 269.85 608.171 271.73 602.871 269.44C595.701 265.02 604.351 262.2 608.401 262.44C612.451 262.68 620.641 259.61 622.291 260.2C623.941 260.79 642.291 264.79 643.111 271.5C643.931 280.63 651.701 317.69 651.701 317.69Z" fill="#EC55B4"/>
<path d="M614.171 277.27C615.301 278.21 616.391 279.17 617.541 280.05C618.691 280.93 619.821 281.85 620.971 282.72C622.192 283.499 623.349 284.376 624.431 285.34C625.507 286.391 626.423 287.594 627.151 288.91L627.001 289.11C625.512 288.768 624.104 288.143 622.851 287.27C621.666 286.385 620.591 285.361 619.651 284.22C618.651 283.17 617.651 282.07 616.651 280.95C615.651 279.83 614.801 278.65 613.971 277.43L614.171 277.27Z" fill="black"/>
<path d="M581.611 266.78V270.22C581.611 270.22 586.201 272.87 588.411 273.04C590.311 273.2 638.871 280.6 652.031 282.6C652.449 282.671 652.876 282.653 653.286 282.547C653.696 282.441 654.079 282.25 654.41 281.985C654.74 281.721 655.011 281.389 655.204 281.013C655.398 280.636 655.509 280.223 655.531 279.8V279.8C655.584 279.04 655.35 278.287 654.877 277.689C654.403 277.092 653.724 276.693 652.971 276.57L588.581 266.16L581.611 266.78Z" fill="black"/>
<path d="M366.171 186.13C366.171 186.13 350.911 178.98 337.671 185.25" stroke="black" stroke-miterlimit="10"/>
<path d="M364.461 191.16C364.461 191.16 349.021 184.54 337.641 192.4" stroke="black" stroke-miterlimit="10"/>
<path d="M503.081 421.01C503.081 421.01 530.411 482.16 526.641 535.1C526.641 535.1 555.931 551.69 553.461 616.63C553.611 657.93 561.931 668.87 561.931 668.87C561.931 668.87 529.991 696.22 525.931 696.04L449.701 470.63C449.701 470.63 398.521 472.28 351.051 451.98C351.051 451.98 384.761 466.87 392.521 530.16C398.171 565.46 424.601 596.22 424.601 596.22L383.351 614.62C383.351 614.62 312.521 509.69 303.821 475.34C295.121 440.99 279.351 400.04 336.051 395.81C392.751 391.58 486.581 410.93 503.081 421.01Z" fill="#E7562E"/>
</svg>
