<svg width="900" height="850" viewBox="0 0 900 850" fill="none" xmlns="http://www.w3.org/2000/svg">
<path d="M498.59 239.097C498.59 239.097 484.06 243.217 479.53 247.987L459 241.747L473.06 255.337C473.06 255.337 458.71 276.397 471.94 283.987C482.71 289.517 483.29 288.747 483.29 288.747L482.47 298.517L509.47 307.397L510.82 280.807C510.82 280.807 523.82 265.457 523.88 265.277C523.94 265.097 520.35 254.397 520.35 254.397L504.65 239.097H498.59Z" fill="#EC55B4"/>
<path d="M490.91 238.747L493.91 250.277" stroke="black" stroke-width="2.5" stroke-miterlimit="10"/>
<path d="M504.85 260.717L493.65 254.407" stroke="black" stroke-miterlimit="10"/>
<path d="M470.41 271.217C470.41 271.217 475.9 278.087 486.35 270.217" stroke="black" stroke-width="2.5" stroke-miterlimit="10"/>
<path d="M485.63 260.717C490.142 260.717 493.8 257.059 493.8 252.547C493.8 248.034 490.142 244.377 485.63 244.377C481.118 244.377 477.46 248.034 477.46 252.547C477.46 257.059 481.118 260.717 485.63 260.717Z" stroke="black" stroke-width="2" stroke-miterlimit="10"/>
<path d="M509.44 250.047C509.44 250.047 493.96 248.607 496.6 237.737C504.15 231.647 524.35 242.547 526.38 255.337C528.41 268.127 523.06 285.047 512.47 284.687C501.88 284.327 503.94 274.747 503.94 274.747C503.94 274.747 521.12 271.217 520.06 262.867C519 254.517 503.65 262.397 503.65 262.397C503.65 262.397 504.94 254.277 509.44 250.047Z" fill="black"/>
</svg>
