<svg width="900" height="850" viewBox="0 0 900 850" fill="none" xmlns="http://www.w3.org/2000/svg">
<path d="M564.39 671.83L578.39 677.92C578.39 677.92 571.39 708.86 571.07 710.68C570.75 712.5 565.73 704.41 564.31 697.31C562.89 690.21 561 681.77 564.39 671.83Z" fill="#A740A0"/>
<path d="M562.55 669L566.18 672.6L539.65 694.2L538.38 747.92L527.75 758.52L523.11 754.5L523.41 749.97L532.2 693.84L562.55 669Z" fill="#FEDE3F"/>
<path d="M556.14 680.78C556.14 680.78 558.05 701.84 565.55 709.84L539.21 754.24C539.21 754.24 532.69 765.43 523 762.85L523.11 754.5C523.11 754.5 528.38 755.56 531.11 752.22C533.84 748.88 535.01 748.63 536.11 736.89C537.21 725.15 539.22 693.95 539.22 693.95L556.14 680.78Z" fill="#334BFB"/>
<path d="M535.42 690.66C534.67 700.87 532.36 733.17 531.47 742.12C530.39 752.85 523.39 750.18 523.39 750.18L526.55 696.18L535.42 690.66Z" fill="#334BFB"/>
<path d="M598.41 685.76C598.41 685.76 598.13 686.19 597.6 686.97L595.14 690.66L592.14 695.18C591.27 696.5 590.32 697.91 589.31 699.43L585.95 704.49C585.11 705.75 584.23 707.06 583.34 708.41C573.41 723.3 561.07 741.92 554 753.07C550.88 757.96 548.77 761.39 548.33 762.45C546.33 767.11 536.96 775.35 528.75 770.61C527.131 769.635 525.718 768.355 524.59 766.84C524.59 766.84 537.49 766.84 547.23 749.31C556.97 731.78 571.37 709.56 571.37 709.56L572.37 705.09L573.37 700.8L574.64 695.13L575.64 690.82L576.64 686.18L577.64 681.56L578.46 677.91C578.46 677.91 592.76 672.45 598.41 685.76Z" fill="#53B88B"/>
<path d="M554 753.07C550.88 757.96 548.77 761.39 548.33 762.45C546.33 767.11 536.96 775.35 528.75 770.61C530.898 769.788 533.257 769.7 535.46 770.36C542.15 771.98 541.31 758.06 550.58 754.28C551.699 753.819 552.84 753.415 554 753.07V753.07Z" fill="#E7522E"/>
<path d="M595.14 690.66L576.57 686.18L577.61 681.56L597.6 686.97L595.14 690.66Z" fill="#FEDE3F"/>
<path d="M592.11 695.18C591.24 696.5 590.29 697.91 589.28 699.43L574.58 695.13L575.58 690.82L592.11 695.18Z" fill="#FEDE3F"/>
<path d="M583.3 708.41L572.34 705.09L573.3 700.8L585.91 704.49L583.3 708.41Z" fill="#FEDE3F"/>
<path d="M550.06 716.01C553.363 716.01 556.04 713.333 556.04 710.03C556.04 706.727 553.363 704.05 550.06 704.05C546.757 704.05 544.08 706.727 544.08 710.03C544.08 713.333 546.757 716.01 550.06 716.01Z" fill="#E7522E"/>
</svg>
