<svg width="900" height="850" viewBox="0 0 900 850" fill="none" xmlns="http://www.w3.org/2000/svg">
<path d="M425.41 596.96L437.76 605.96C437.76 605.96 424.12 634.63 423.41 636.34C422.7 638.05 419.59 629.04 419.76 621.81C419.93 614.58 419.88 605.9 425.41 596.96Z" fill="#A740A0"/>
<path d="M423.609 595L426.979 598.11L396.349 613.34L383.289 665.45L370.589 673.45L366.939 668.51L368.229 664.16L389.159 611.34L423.609 595Z" fill="#FEDE3F"/>
<path d="M415.17 603.98C415.17 603.98 412.62 624.83 418.17 634.29L382.7 671.81C382.7 671.81 373.88 681.28 365 676.63L366.94 668.51C366.94 668.51 371.85 670.7 375.29 668.06C378.73 665.42 379.88 665.41 383.54 654.2C387.2 642.99 396.03 613 396.03 613L415.17 603.98Z" fill="#334BFB"/>
<path d="M392.879 609.72C389.879 619.52 380.709 649.72 377.879 658.28C374.469 668.51 368.229 664.36 368.229 664.36L383.709 613.78L392.879 609.72Z" fill="#334BFB"/>
<path d="M455.53 618.04L454.47 619.04L451.26 622.09L447.31 625.84L443.61 629.36L439.22 633.55L435.81 636.8C422.88 649.11 406.74 664.63 397.36 673.91C393.24 677.99 390.43 680.91 389.76 681.81C386.76 685.91 375.83 691.89 368.87 685.46C367.501 684.158 366.403 682.598 365.64 680.87C365.64 680.87 378.23 683.69 391.58 668.75C404.93 653.81 423.88 635.29 423.88 635.29L425.88 631.15L427.76 627.15L430.25 621.9L432.14 617.9L434.14 613.61L436.14 609.33L437.74 605.95C437.74 605.95 452.94 603.81 455.53 618.04Z" fill="#53B88B"/>
<path d="M397.36 673.91C393.24 677.99 390.43 680.91 389.76 681.81C386.76 685.91 375.83 691.89 368.87 685.46C371.146 685.131 373.466 685.563 375.47 686.69C381.64 689.75 383.88 675.98 393.76 674.34C394.952 674.133 396.153 673.99 397.36 673.91V673.91Z" fill="#E7522E"/>
<path d="M451.26 622.09L434.13 613.64L436.16 609.36L454.47 619.04L451.26 622.09Z" fill="#FEDE3F"/>
<path d="M447.31 625.84L443.61 629.36L430.22 621.93L432.11 617.93L447.31 625.84Z" fill="#FEDE3F"/>
<path d="M435.8 636.8L425.84 631.15L427.72 627.18L439.21 633.55L435.8 636.8Z" fill="#FEDE3F"/>
<path d="M403.02 637.04C406.323 637.04 409 634.363 409 631.06C409 627.757 406.323 625.08 403.02 625.08C399.717 625.08 397.04 627.757 397.04 631.06C397.04 634.363 399.717 637.04 403.02 637.04Z" fill="#E7522E"/>
</svg>
